<svg xmlns="http://www.w3.org/2000/svg" xmlns:xlink="http://www.w3.org/1999/xlink" >
    <defs>

        <svg viewBox="0 0 64 64" x="0px" y="0px" width="48px" height="48px" id="checked"><path d="M32.707 42l17-17.146-1.414-1.488L32 39.623 15.707 23.312l-1.414 1.551 17 17.137z"></path><path d="M31.999 64h.002c8.548 0 16.583-3.33 22.627-9.373S64 40.547 63.999 31.999c0-8.548-3.328-16.584-9.372-22.627C48.584 3.329 40.549 0 32.001 0h-.002C23.451 0 15.416 3.329 9.372 9.373 3.329 15.417 0 23.453.001 32.001c0 8.548 3.328 16.584 9.372 22.627C15.416 60.671 23.451 64 31.999 64zM10.787 10.787C16.452 5.121 23.986 2 32.001 2h.002c8.012 0 15.545 3.121 21.211 8.786 5.666 5.666 8.786 13.2 8.785 21.213 0 8.014-3.12 15.548-8.785 21.214S40.015 62 32.001 62h-.004c-8.012 0-15.545-3.121-21.211-8.786C5.121 47.548 2 40.015 2.001 32.001 2 23.987 5.121 16.453 10.787 10.787z"></path></svg>

        <svg version="1" x="0px" y="0px" viewBox="0 0 200 85" width="100px" height="45px" id="logo"><g transform="matrix(.1 0 0 -.1 0 75)"><path d="M583 735c-146-40-253-127-253-203 0-42 33-65 130-91 148-40 188-67 175-118-17-70-190-183-365-238C179 57 78 48 60 66c-38 38 131 189 280 251 30 12 47 23 38 23s-66-25-127-55c-82-41-128-72-176-118C9 104-1 80 20 40 81-74 577 88 660 250c50 99 10 147-172 200-88 26-122 51-113 83 11 38 94 106 179 147 96 45 153 57 180 37 19-14 19-15 0-48-20-34-134-119-160-119-8 0-14 8-15 18 0 10-6 5-17-16-14-29-14-34-2-43 60-39 230 87 230 171 0 59-84 84-187 55zM1886 445c-54-82-218-246-232-232-10 9 32 92 67 131 32 37 32 39 14 52-30 22-42 17-73-28-29-41-154-168-166-168-20 0 85 177 110 187 18 7 6 31-18 39-13 4-28-2-43-16-28-26-91-49-117-42-10 2-23 13-29 23-5 11-14 19-19 19-17 0-41-33-35-50 10-31-134-190-172-190-82 0 99 235 199 259l43 10-56-3c-82-4-124-28-272-155-140-121-154-100-37 54 42 55 48 69 40 86-6 10-16 19-23 19-17 0-80-43-152-103-33-28-69-58-79-66-26-21 37 69 76 108 25 26 28 34 18 46-7 8-21 15-31 15-34 0-169-201-169-251 0-35 20-49 34-24 30 53 140 154 230 211 29 18 29 18-8-30-74-97-92-156-54-180 23-14 56 5 141 84 39 36 63 54 55 40-9-14-19-39-23-57-5-27-2-37 20-58 21-22 31-25 58-20 74 16 173 91 202 155 16 36 22 40 54 40 20 0 47 7 59 16 20 14 20 11-7-35-17-27-37-71-46-97-14-43-14-48 1-65 22-24 37-16 115 64 34 34 58 53 53 42-4-11-8-40-8-65-1-66 25-66 99 2 62 56 166 181 190 229 19 36 13 38-9 4z"></path></g></svg>

  </defs>
</svg>
